<svg class="background-1" style="color: var(--main_color)" fill="none" viewBox="0 0 289 322" xmlns="http://www.w3.org/2000/svg"><path d="M46.7164 57.2235L46.719 57.2147L46.7212 57.2058L47.2106 55.2431C51.9232 39.5531 61.5162 25.7808 74.5907 15.9336C87.6676 6.08463 103.544 0.677319 119.904 0.5H212.695C218.258 0.5 222.375 5.67597 221.124 11.097L180.434 187.342L180.433 187.346L176.086 205.501C171.321 220.184 162.062 232.993 149.622 242.111C137.176 251.232 122.179 256.196 106.758 256.299H11.4889C5.9299 256.299 1.81369 251.131 3.05708 245.713L44.7494 64.0373L46.7164 57.2235Z" stroke="url(#paint0_linear_360_23130)"></path><path d="M111.345 122.424L111.348 122.415L111.35 122.407L111.839 120.444C116.552 104.754 126.145 90.9815 139.219 81.1344C152.296 71.2854 168.172 65.8781 184.533 65.7007H277.323C282.887 65.7007 287.004 70.8767 285.752 76.2978L245.063 252.543L245.062 252.547L240.714 270.702C235.949 285.385 226.69 298.194 214.25 307.311C201.805 316.433 186.808 321.397 171.387 321.5H76.1175C70.5586 321.5 66.4424 316.332 67.6857 310.914L109.378 129.238L111.345 122.424Z" stroke="url(#paint1_linear_360_23130)"></path><defs><linearGradient gradientUnits="userSpaceOnUse" id="paint0_linear_360_23130" x1="133.5" x2="112.099" y1="103.5" y2="256.799"><stop stop-color="#D88129"></stop><stop stop-color="#D88129" offset="1" stop-opacity="0.26"></stop></linearGradient><linearGradient gradientUnits="userSpaceOnUse" id="paint1_linear_360_23130" x1="174" x2="260" y1="139.5" y2="241.5"><stop stop-color="#D88129"></stop><stop stop-color="#D88129" offset="0.005"></stop><stop stop-color="#D88129" offset="1" stop-opacity="0.09"></stop></linearGradient></defs></svg>