<svg class="background-2" style="color: #D88129;" fill="none" viewBox="0 0 161 209" xmlns="http://www.w3.org/2000/svg">
  <path d="M25.6776 21.9275L25.6777 21.9275L25.6786 21.9236L25.8668 21.1688C27.6793 15.1328 31.3696 9.83453 36.3993 6.04636C41.4295 2.25779 47.5366 0.177808 53.8299 0.109694H89.4237C91.6106 0.109694 93.229 2.14426 92.737 4.27516L77.1287 71.8812L77.1285 71.8821L75.46 78.8501C73.6272 84.5001 70.0648 89.4287 65.2781 92.9369C60.4903 96.446 54.7209 98.3558 48.7884 98.3954H12.2436C10.0585 98.3954 8.4405 96.364 8.92925 94.2343L24.9224 24.5434L25.6776 21.9275Z"
        stroke="#D88129" stroke-width="0.219388"/>
  <path d="M85.6438 25.174C73.8809 25.301 62.4662 29.1886 53.0642 36.2698C43.6622 43.351 36.7645 53.2554 33.3773 64.5387L33.0258 65.9488L31.618 70.8254L1.83554 200.604C0.896069 204.697 4.00615 208.602 8.20635 208.602H76.2583C87.3485 208.528 98.1336 204.958 107.084 198.398C116.034 191.838 122.694 182.622 126.12 172.057L129.229 159.073L158.294 33.1808C159.239 29.0848 156.128 25.174 151.925 25.174H85.6438Z"
        fill="url(#paint0_linear_360_23132)" opacity="0.3"/>
  <defs>
    <linearGradient gradientUnits="userSpaceOnUse" id="paint0_linear_360_23132" x1="129.337" x2="80.071" y1="25.602" y2="208.602">
      <stop stop-color="#D88129"/>
      <stop stop-color="#D88129" offset="1" stop-opacity="0.3"/>
    </linearGradient>
  </defs>
</svg>
